<?xml version="1.0" encoding="utf-8" standalone="no"?>
<!DOCTYPE svg PUBLIC "-//W3C//DTD SVG 1.1//EN" "http://www.w3.org/Graphics/SVG/1.1/DTD/svg11.dtd">
<svg version="1.1" class="svg-plot" xmlns="http://www.w3.org/2000/svg" width="1005.25pt" height="960pt" viewBox="-89.5 -15 1005.25 960" preserveAspectRatio="xMidYMid"><rect x="-79.5" y="-5" width="985.25" height="940" class="svg-plot-bg"/><rect x="0" y="0" width="900" height="900" class="svg-plot-axis"/><line x1="0" x2="0" y1="0" y2="900" class="svg-plot-minor"/><line x1="900" x2="900" y1="0" y2="900" class="svg-plot-minor"/><line x1="0" x2="900" y1="900" y2="900" class="svg-plot-minor"/><line x1="0" x2="900" y1="0" y2="0" class="svg-plot-minor"/><clipPath id="clip0"><rect x="-0.75" y="-0.75" width="901.5" height="901.5"/></clipPath><g clip-path="url(#clip0)"><path class="svg-plot-line svg-plot-s0 svg-plot-d0" d="M 0 0 0.54 0.02 1.08 0.1 1.62 0.22 2.16 0.38 2.7 0.6 3.24 0.86 3.78 1.17 4.32 1.53 4.86 1.94 5.4 2.39 5.94 2.89 6.57 3.54 7.2 4.25 7.83 5.02 8.46 5.86 9.09 6.76 9.81 7.86 10.53 9.05 11.25 10.32 11.97 11.67 12.69 13.11 13.5 14.82 14.31 16.62 15.12 18.53 15.93 20.54 16.83 22.89 17.73 25.35 18.63 27.94 19.53 30.64 20.52 33.74 21.51 36.99 22.5 40.36 23.58 44.2 24.66 48.19 25.74 52.34 26.91 57 28.08 61.83 29.25 66.82 30.51 72.38 31.77 78.13 33.12 84.48 34.47 91.02 35.91 98.21 37.35 105.6 38.88 113.67 40.5 122.44 42.12 131.43 43.83 141.14 45.63 151.6 47.52 162.82 49.59 175.35 51.75 188.69 54.09 203.38 56.7 220.04 59.67 239.26 63.36 263.44 69.57 304.51 75.51 343.74 79.29 368.46 82.53 389.41 85.5 408.35 88.2 425.33 90.81 441.49 93.24 456.29 95.58 470.31 97.83 483.56 100.08 496.58 102.24 508.84 104.4 520.88 106.47 532.18 108.54 543.27 110.52 553.66 112.5 563.84 114.48 573.81 116.37 583.13 118.26 592.25 120.15 601.18 122.04 609.91 123.84 618.04 125.64 625.99 127.44 633.77 129.24 641.38 131.04 648.8 132.84 656.06 134.64 663.15 136.35 669.72 138.06 676.14 139.77 682.41 141.48 688.53 143.19 694.51 144.9 700.34 146.61 706.03 148.32 711.58 150.03 716.99 151.74 722.27 153.45 727.41 155.16 732.42 156.78 737.04 158.4 741.56 160.02 745.96 161.64 750.25 163.26 754.43 164.88 758.51 166.5 762.48 168.12 766.35 169.74 770.12 171.36 773.8 172.98 777.38 174.6 780.86 176.22 784.26 177.84 787.56 179.46 790.77 181.08 793.9 182.7 796.95 184.32 799.91 185.94 802.8 187.56 805.6 189.18 808.33 190.8 810.99 192.42 813.57 194.04 816.08 195.75 818.66 197.46 821.16 199.17 823.58 200.88 825.94 202.59 828.23 204.3 830.44 206.01 832.6 207.72 834.69 209.43 836.71 211.14 838.68 212.85 840.59 214.56 842.44 216.36 844.32 218.16 846.15 219.96 847.92 221.76 849.63 223.56 851.29 225.36 852.89 227.16 854.45 229.05 856.02 230.94 857.55 232.83 859.02 234.72 860.44 236.61 861.82 238.59 863.21 240.57 864.55 242.55 865.84 244.53 867.09 246.6 868.34 248.67 869.55 250.74 870.71 252.9 871.88 255.06 873 257.22 874.08 259.47 875.15 261.72 876.19 264.06 877.22 266.4 878.2 268.83 879.18 271.26 880.11 273.78 881.04 276.3 881.92 278.91 882.8 281.52 883.63 284.22 884.44 287.01 885.24 289.89 886.03 292.77 886.77 295.74 887.5 298.8 888.2 301.95 888.89 305.19 889.55 308.52 890.19 311.94 890.81 315.45 891.41 319.14 891.99 322.92 892.55 326.88 893.09 330.93 893.6 335.16 894.1 339.57 894.57 344.16 895.03 349.02 895.47 354.06 895.88 359.37 896.28 364.95 896.66 370.8 897.01 377.01 897.34 383.67 897.66 390.69 897.95 398.25 898.23 406.44 898.49 415.26 898.72 424.89 898.94 435.51 899.13 447.3 899.31 460.62 899.46 475.83 899.6 493.65 899.71 515.07 899.81 541.89 899.89 577.8 899.94 632.16 899.98 743.94 900 900 900"/></g><g><line x1="0" x2="0" y1="900" y2="904" class="svg-plot-tick"/><line x1="900" x2="900" y1="900" y2="904" class="svg-plot-tick"/><line x1="0" x2="-4" y1="900" y2="900" class="svg-plot-tick"/><line x1="0" x2="-4" y1="0" y2="0" class="svg-plot-tick"/><text class="svg-plot-label svg-plot-t" x="0" y="0" transform="rotate(-90) translate(-449 -74.5)">acceleration [m/s^2]</text><text class="svg-plot-value" style="text-anchor:end" x="-9" y="-1">9.81</text><text class="svg-plot-value" style="text-anchor:end" x="-9" y="899">1.31119e-06</text><text class="svg-plot-label svg-plot-t" x="450" y="929">time [s]</text><text class="svg-plot-value" x="900" y="913">10</text><text class="svg-plot-value" x="0" y="913">0</text></g><defs><g id="svg-plot-marker0" class="svg-plot-marker"><circle cx="0" cy="0" r="1" stroke="none"/></g><g id="svg-plot-marker1" class="svg-plot-marker"><path d="M0 0.9 -0.9 0 0 -0.9 0.9 0Z" fill="#FFFA" stroke-linejoin="miter" stroke-width="0.6"/></g><g id="svg-plot-marker2" class="svg-plot-marker"><path fill="none" d="M0 -1.2 0 1.2 M -1.2 0 1.2 0" stroke-width="0.7"/></g><g id="svg-plot-marker3" class="svg-plot-marker"><circle cx="0" cy="0" fill="#FFFA" r="0.8" stroke-width="0.65"/></g><g id="svg-plot-marker4" class="svg-plot-marker"><path stroke="none" d="M0 -1.25 1.25 0.9 -1.25 0.9Z"/></g><mask id="svg-plot-hatch1"><rect x="-1323" y="-1323" width="2646" height="2646" fill="url(#svg-plot-hatch1-pattern)" style="transform:rotate(-50deg)"/></mask><pattern patternUnits="userSpaceOnUse" id="svg-plot-hatch1-pattern" class="svg-plot-hatch" x="0" y="0" width="10" height="3" stroke="#FFF" fill="none"><line x1="-1" x2="11" y1="1.5" y2="1.5"/></pattern><mask id="svg-plot-hatch2"><rect x="-1323" y="-1323" width="2646" height="2646" fill="url(#svg-plot-hatch2-pattern)" style="transform:rotate(30deg)"/></mask><pattern patternUnits="userSpaceOnUse" id="svg-plot-hatch2-pattern" class="svg-plot-hatch" x="0" y="0" width="10" height="2.4" stroke="#FFF" fill="none"><line x1="-1" x2="11" y1="1.2" y2="1.2"/></pattern><mask id="svg-plot-hatch3"><rect x="-1323" y="-1323" width="2646" height="2646" fill="url(#svg-plot-hatch3-pattern)" style="transform:rotate(8deg)"/><rect x="-1323" y="-1323" width="2646" height="2646" fill="url(#svg-plot-hatch3-pattern)" style="transform:rotate(93deg)"/></mask><pattern patternUnits="userSpaceOnUse" id="svg-plot-hatch3-pattern" class="svg-plot-hatch" x="0" y="0" width="10" height="3" stroke="#FFF" fill="none"><line x1="-1" x2="11" y1="1.5" y2="1.5"/></pattern></defs><style>.svg-plot{stroke-linecap:butt;stroke-linejoin:round;}.svg-plot-bg{fill:none;stroke:none;}.svg-plot-axis{stroke:none;fill:#FFFFFFD9;}.svg-plot-legend{stroke:none;fill:#FFFFFFE4;}.svg-plot-line{stroke:blue;fill:none;stroke-width:1.5px;stroke-linejoin:round;}.svg-plot-fill{stroke:none;opacity:0.3;}.svg-plot-major{stroke:#000;stroke-width:1px;stroke-linecap:square;fill:none;}.svg-plot-minor{stroke:#0000004D;stroke-width:0.5px;stroke-dasharray:0.5 1.5;stroke-linecap:round;fill:none;}.svg-plot-tick{stroke:#000;fill:none;stroke-width:1px;stroke-linecap:butt;}.svg-plot-value,.svg-plot-label{font-family:Arial,sans-serif;fill:#000;stroke:#FFFFFF48;stroke-width:2.5px;paint-order:stroke fill;text-anchor:middle;dominant-baseline:central;alignment-baseline:baseline;}.svg-plot-label{font-size:12px;}.svg-plot-value{font-size:10px;}.svg-plot-hatch{stroke:#FFF;stroke-width:1px;}.svg-plot-marker{transform:scale(3.25);}.svg-plot-s{stroke:#000;}.svg-plot-f,.svg-plot-t{fill:#000;}.svg-plot-s0{stroke:#0073E6}.svg-plot-f0,.svg-plot-t0{fill:#0073E6}.svg-plot-s1{stroke:#CC0000}.svg-plot-f1,.svg-plot-t1{fill:#CC0000}.svg-plot-s2{stroke:#00B300}.svg-plot-f2,.svg-plot-t2{fill:#00B300}.svg-plot-s3{stroke:#806600}.svg-plot-f3,.svg-plot-t3{fill:#806600}.svg-plot-s4{stroke:#E69900}.svg-plot-f4,.svg-plot-t4{fill:#E69900}.svg-plot-s5{stroke:#CC00CC}.svg-plot-f5,.svg-plot-t5{fill:#CC00CC}.svg-plot-d0{stroke-width:1.35px}.svg-plot-d1{stroke-dasharray:1.8 1.8}.svg-plot-d2{stroke-dasharray:4.2 2.4}.svg-plot-d3{stroke-dasharray:7.5 6}.svg-plot-d4{stroke-dasharray:6 1.5 1.5 1.5 1.5 1.5}.svg-plot-d5{stroke-dasharray:15 4.5}.svg-plot-d6{stroke-dasharray:6 3 1.5 3}.svg-plot-h0{opacity:0.1}.svg-plot-h1{mask:url(#svg-plot-hatch1)}.svg-plot-h2{mask:url(#svg-plot-hatch2)}.svg-plot-h3{mask:url(#svg-plot-hatch3)}#svg-plot-hatch2-pattern{stroke-width:0.9px}#svg-plot-hatch3-pattern{stroke-width:0.7px}</style></svg>