<?xml version="1.0" encoding="utf-8" standalone="no"?>
<!DOCTYPE svg PUBLIC "-//W3C//DTD SVG 1.1//EN" "http://www.w3.org/Graphics/SVG/1.1/DTD/svg11.dtd">
<svg version="1.1" class="svg-plot" xmlns="http://www.w3.org/2000/svg" width="985.45pt" height="960pt" viewBox="-69.7 -15 985.45 960" preserveAspectRatio="xMidYMid"><rect x="-59.7" y="-5" width="965.45" height="940" class="svg-plot-bg"/><rect x="0" y="0" width="900" height="900" class="svg-plot-axis"/><line x1="0" x2="0" y1="0" y2="900" class="svg-plot-minor"/><line x1="900" x2="900" y1="0" y2="900" class="svg-plot-minor"/><line x1="0" x2="900" y1="900" y2="900" class="svg-plot-minor"/><line x1="0" x2="900" y1="0" y2="0" class="svg-plot-minor"/><clipPath id="clip0"><rect x="-0.75" y="-0.75" width="901.5" height="901.5"/></clipPath><g clip-path="url(#clip0)"><path class="svg-plot-line svg-plot-s0 svg-plot-d0" d="M 0 900 1.98 899.98 3.96 899.92 5.94 899.82 7.92 899.67 9.9 899.49 11.88 899.27 13.86 899 15.84 898.7 17.82 898.36 19.8 897.97 21.78 897.55 23.85 897.07 25.92 896.54 27.99 895.98 30.06 895.37 32.13 894.72 34.29 893.99 36.45 893.23 38.61 892.42 40.77 891.57 42.93 890.68 45.18 889.7 47.43 888.69 49.68 887.63 52.02 886.48 54.36 885.28 56.7 884.05 59.13 882.72 61.56 881.34 64.08 879.87 66.6 878.35 69.21 876.73 71.82 875.06 74.52 873.29 77.22 871.47 80.01 869.54 82.89 867.49 85.77 865.4 88.74 863.2 91.8 860.88 94.95 858.43 98.19 855.87 101.52 853.18 104.94 850.37 108.45 847.43 112.05 844.36 115.74 841.17 119.61 837.76 123.57 834.22 127.71 830.47 132.03 826.49 136.44 822.38 141.03 818.04 145.89 813.4 150.93 808.52 156.24 803.33 161.82 797.81 167.67 791.97 173.88 785.72 180.45 779.04 187.47 771.84 194.94 764.13 202.95 755.8 211.68 746.66 221.13 736.7 231.48 725.74 243 713.47 255.87 699.71 270.54 683.96 287.55 665.64 307.89 643.67 333.09 616.38 366.12 580.55 414.09 528.44 501.57 433.33 900 0"/></g><g><line x1="0" x2="0" y1="900" y2="904" class="svg-plot-tick"/><line x1="900" x2="900" y1="900" y2="904" class="svg-plot-tick"/><line x1="0" x2="-4" y1="900" y2="900" class="svg-plot-tick"/><line x1="0" x2="-4" y1="0" y2="0" class="svg-plot-tick"/><text class="svg-plot-label svg-plot-t" x="0" y="0" transform="rotate(-90) translate(-449 -54.7)">position [m]</text><text class="svg-plot-value" style="text-anchor:end" x="-9" y="-1">104.898</text><text class="svg-plot-value" style="text-anchor:end" x="-9" y="899">0</text><text class="svg-plot-label svg-plot-t" x="450" y="929">time [s]</text><text class="svg-plot-value" x="900" y="913">10</text><text class="svg-plot-value" x="0" y="913">0</text></g><defs><g id="svg-plot-marker0" class="svg-plot-marker"><circle cx="0" cy="0" r="1" stroke="none"/></g><g id="svg-plot-marker1" class="svg-plot-marker"><path d="M0 0.9 -0.9 0 0 -0.9 0.9 0Z" fill="#FFFA" stroke-linejoin="miter" stroke-width="0.6"/></g><g id="svg-plot-marker2" class="svg-plot-marker"><path fill="none" d="M0 -1.2 0 1.2 M -1.2 0 1.2 0" stroke-width="0.7"/></g><g id="svg-plot-marker3" class="svg-plot-marker"><circle cx="0" cy="0" fill="#FFFA" r="0.8" stroke-width="0.65"/></g><g id="svg-plot-marker4" class="svg-plot-marker"><path stroke="none" d="M0 -1.25 1.25 0.9 -1.25 0.9Z"/></g><mask id="svg-plot-hatch1"><rect x="-1323" y="-1323" width="2646" height="2646" fill="url(#svg-plot-hatch1-pattern)" style="transform:rotate(-50deg)"/></mask><pattern patternUnits="userSpaceOnUse" id="svg-plot-hatch1-pattern" class="svg-plot-hatch" x="0" y="0" width="10" height="3" stroke="#FFF" fill="none"><line x1="-1" x2="11" y1="1.5" y2="1.5"/></pattern><mask id="svg-plot-hatch2"><rect x="-1323" y="-1323" width="2646" height="2646" fill="url(#svg-plot-hatch2-pattern)" style="transform:rotate(30deg)"/></mask><pattern patternUnits="userSpaceOnUse" id="svg-plot-hatch2-pattern" class="svg-plot-hatch" x="0" y="0" width="10" height="2.4" stroke="#FFF" fill="none"><line x1="-1" x2="11" y1="1.2" y2="1.2"/></pattern><mask id="svg-plot-hatch3"><rect x="-1323" y="-1323" width="2646" height="2646" fill="url(#svg-plot-hatch3-pattern)" style="transform:rotate(8deg)"/><rect x="-1323" y="-1323" width="2646" height="2646" fill="url(#svg-plot-hatch3-pattern)" style="transform:rotate(93deg)"/></mask><pattern patternUnits="userSpaceOnUse" id="svg-plot-hatch3-pattern" class="svg-plot-hatch" x="0" y="0" width="10" height="3" stroke="#FFF" fill="none"><line x1="-1" x2="11" y1="1.5" y2="1.5"/></pattern></defs><style>.svg-plot{stroke-linecap:butt;stroke-linejoin:round;}.svg-plot-bg{fill:none;stroke:none;}.svg-plot-axis{stroke:none;fill:#FFFFFFD9;}.svg-plot-legend{stroke:none;fill:#FFFFFFE4;}.svg-plot-line{stroke:blue;fill:none;stroke-width:1.5px;stroke-linejoin:round;}.svg-plot-fill{stroke:none;opacity:0.3;}.svg-plot-major{stroke:#000;stroke-width:1px;stroke-linecap:square;fill:none;}.svg-plot-minor{stroke:#0000004D;stroke-width:0.5px;stroke-dasharray:0.5 1.5;stroke-linecap:round;fill:none;}.svg-plot-tick{stroke:#000;fill:none;stroke-width:1px;stroke-linecap:butt;}.svg-plot-value,.svg-plot-label{font-family:Arial,sans-serif;fill:#000;stroke:#FFFFFF48;stroke-width:2.5px;paint-order:stroke fill;text-anchor:middle;dominant-baseline:central;alignment-baseline:baseline;}.svg-plot-label{font-size:12px;}.svg-plot-value{font-size:10px;}.svg-plot-hatch{stroke:#FFF;stroke-width:1px;}.svg-plot-marker{transform:scale(3.25);}.svg-plot-s{stroke:#000;}.svg-plot-f,.svg-plot-t{fill:#000;}.svg-plot-s0{stroke:#0073E6}.svg-plot-f0,.svg-plot-t0{fill:#0073E6}.svg-plot-s1{stroke:#CC0000}.svg-plot-f1,.svg-plot-t1{fill:#CC0000}.svg-plot-s2{stroke:#00B300}.svg-plot-f2,.svg-plot-t2{fill:#00B300}.svg-plot-s3{stroke:#806600}.svg-plot-f3,.svg-plot-t3{fill:#806600}.svg-plot-s4{stroke:#E69900}.svg-plot-f4,.svg-plot-t4{fill:#E69900}.svg-plot-s5{stroke:#CC00CC}.svg-plot-f5,.svg-plot-t5{fill:#CC00CC}.svg-plot-d0{stroke-width:1.35px}.svg-plot-d1{stroke-dasharray:1.8 1.8}.svg-plot-d2{stroke-dasharray:4.2 2.4}.svg-plot-d3{stroke-dasharray:7.5 6}.svg-plot-d4{stroke-dasharray:6 1.5 1.5 1.5 1.5 1.5}.svg-plot-d5{stroke-dasharray:15 4.5}.svg-plot-d6{stroke-dasharray:6 3 1.5 3}.svg-plot-h0{opacity:0.1}.svg-plot-h1{mask:url(#svg-plot-hatch1)}.svg-plot-h2{mask:url(#svg-plot-hatch2)}.svg-plot-h3{mask:url(#svg-plot-hatch3)}#svg-plot-hatch2-pattern{stroke-width:0.9px}#svg-plot-hatch3-pattern{stroke-width:0.7px}</style></svg>