<?xml version="1.0" encoding="utf-8" standalone="no"?>
<!DOCTYPE svg PUBLIC "-//W3C//DTD SVG 1.1//EN" "http://www.w3.org/Graphics/SVG/1.1/DTD/svg11.dtd">
<svg version="1.1" class="svg-plot" xmlns="http://www.w3.org/2000/svg" width="984.85pt" height="960pt" viewBox="-69.1 -15 984.85 960" preserveAspectRatio="xMidYMid"><rect x="-59.1" y="-5" width="964.85" height="940" class="svg-plot-bg"/><rect x="0" y="0" width="900" height="900" class="svg-plot-axis"/><line x1="0" x2="0" y1="0" y2="900" class="svg-plot-minor"/><line x1="900" x2="900" y1="0" y2="900" class="svg-plot-minor"/><line x1="0" x2="900" y1="900" y2="900" class="svg-plot-minor"/><line x1="0" x2="900" y1="0" y2="0" class="svg-plot-minor"/><clipPath id="clip0"><rect x="-0.75" y="-0.75" width="901.5" height="901.5"/></clipPath><g clip-path="url(#clip0)"><path class="svg-plot-line svg-plot-s0 svg-plot-d0" d="M 0 900 7.92 832.01 12.6 792.15 16.56 758.75 20.07 729.46 23.31 702.76 26.37 677.87 29.25 654.77 31.95 633.42 34.56 613.09 37.08 593.77 39.51 575.43 41.94 557.4 44.28 540.33 46.53 524.21 48.78 508.37 50.94 493.44 53.1 478.79 55.17 465.01 57.24 451.49 59.31 438.23 61.29 425.8 63.27 413.62 65.25 401.68 67.23 389.99 69.12 379.07 71.01 368.36 72.9 357.89 74.79 347.64 76.68 337.61 78.48 328.27 80.28 319.14 82.08 310.2 83.88 301.46 85.68 292.92 87.48 284.58 89.28 276.43 91.08 268.47 92.79 261.08 94.5 253.87 96.21 246.82 97.92 239.94 99.63 233.22 101.34 226.66 103.05 220.26 104.76 214.02 106.47 207.93 108.18 201.99 109.89 196.2 111.6 190.55 113.31 185.05 114.93 179.97 116.55 175.01 118.17 170.18 119.79 165.47 121.41 160.87 123.03 156.39 124.65 152.02 126.27 147.76 127.89 143.61 129.51 139.57 131.13 135.63 132.75 131.8 134.37 128.06 135.99 124.43 137.61 120.89 139.23 117.44 140.85 114.08 142.47 110.82 144.09 107.64 145.71 104.54 147.33 101.53 148.95 98.61 150.57 95.76 152.19 92.99 153.81 90.29 155.43 87.67 157.05 85.12 158.67 82.65 160.38 80.1 162.09 77.64 163.8 75.24 165.51 72.92 167.22 70.67 168.93 68.48 170.64 66.36 172.35 64.3 174.06 62.3 175.77 60.36 177.48 58.48 179.19 56.66 180.99 54.8 182.79 53 184.59 51.26 186.39 49.57 188.19 47.94 189.99 46.36 191.88 44.75 193.77 43.2 195.66 41.7 197.55 40.26 199.44 38.86 201.42 37.44 203.4 36.08 205.38 34.77 207.36 33.5 209.43 32.22 211.5 30.99 213.57 29.81 215.73 28.62 217.89 27.48 220.05 26.38 222.3 25.29 224.55 24.24 226.8 23.23 229.14 22.23 231.48 21.26 233.91 20.31 236.34 19.4 238.86 18.49 241.47 17.6 244.08 16.75 246.78 15.92 249.48 15.12 252.27 14.34 255.15 13.58 258.12 12.83 261.18 12.11 264.33 11.41 267.57 10.73 270.9 10.07 274.32 9.43 277.83 8.82 281.43 8.24 285.21 7.67 289.08 7.12 293.13 6.59 297.27 6.09 301.59 5.61 306.09 5.15 310.86 4.7 315.81 4.28 321.03 3.87 326.52 3.49 332.28 3.12 338.4 2.78 344.88 2.46 351.81 2.15 359.19 1.87 367.11 1.61 375.66 1.36 385.02 1.14 395.28 0.94 406.62 0.75 419.31 0.59 433.8 0.45 450.54 0.33 470.43 0.22 495 0.14 526.95 0.08 572.76 0.03 653.31 0.01 900 0"/></g><g><line x1="0" x2="0" y1="900" y2="904" class="svg-plot-tick"/><line x1="900" x2="900" y1="900" y2="904" class="svg-plot-tick"/><line x1="0" x2="-4" y1="900" y2="900" class="svg-plot-tick"/><line x1="0" x2="-4" y1="0" y2="0" class="svg-plot-tick"/><text class="svg-plot-label svg-plot-t" x="0" y="0" transform="rotate(-90) translate(-449 -54.1)">velocity [m/s]</text><text class="svg-plot-value" style="text-anchor:end" x="-9" y="-1">11.4065</text><text class="svg-plot-value" style="text-anchor:end" x="-9" y="899">0</text><text class="svg-plot-label svg-plot-t" x="450" y="929">time [s]</text><text class="svg-plot-value" x="900" y="913">10</text><text class="svg-plot-value" x="0" y="913">0</text></g><defs><g id="svg-plot-marker0" class="svg-plot-marker"><circle cx="0" cy="0" r="1" stroke="none"/></g><g id="svg-plot-marker1" class="svg-plot-marker"><path d="M0 0.9 -0.9 0 0 -0.9 0.9 0Z" fill="#FFFA" stroke-linejoin="miter" stroke-width="0.6"/></g><g id="svg-plot-marker2" class="svg-plot-marker"><path fill="none" d="M0 -1.2 0 1.2 M -1.2 0 1.2 0" stroke-width="0.7"/></g><g id="svg-plot-marker3" class="svg-plot-marker"><circle cx="0" cy="0" fill="#FFFA" r="0.8" stroke-width="0.65"/></g><g id="svg-plot-marker4" class="svg-plot-marker"><path stroke="none" d="M0 -1.25 1.25 0.9 -1.25 0.9Z"/></g><mask id="svg-plot-hatch1"><rect x="-1323" y="-1323" width="2646" height="2646" fill="url(#svg-plot-hatch1-pattern)" style="transform:rotate(-50deg)"/></mask><pattern patternUnits="userSpaceOnUse" id="svg-plot-hatch1-pattern" class="svg-plot-hatch" x="0" y="0" width="10" height="3" stroke="#FFF" fill="none"><line x1="-1" x2="11" y1="1.5" y2="1.5"/></pattern><mask id="svg-plot-hatch2"><rect x="-1323" y="-1323" width="2646" height="2646" fill="url(#svg-plot-hatch2-pattern)" style="transform:rotate(30deg)"/></mask><pattern patternUnits="userSpaceOnUse" id="svg-plot-hatch2-pattern" class="svg-plot-hatch" x="0" y="0" width="10" height="2.4" stroke="#FFF" fill="none"><line x1="-1" x2="11" y1="1.2" y2="1.2"/></pattern><mask id="svg-plot-hatch3"><rect x="-1323" y="-1323" width="2646" height="2646" fill="url(#svg-plot-hatch3-pattern)" style="transform:rotate(8deg)"/><rect x="-1323" y="-1323" width="2646" height="2646" fill="url(#svg-plot-hatch3-pattern)" style="transform:rotate(93deg)"/></mask><pattern patternUnits="userSpaceOnUse" id="svg-plot-hatch3-pattern" class="svg-plot-hatch" x="0" y="0" width="10" height="3" stroke="#FFF" fill="none"><line x1="-1" x2="11" y1="1.5" y2="1.5"/></pattern></defs><style>.svg-plot{stroke-linecap:butt;stroke-linejoin:round;}.svg-plot-bg{fill:none;stroke:none;}.svg-plot-axis{stroke:none;fill:#FFFFFFD9;}.svg-plot-legend{stroke:none;fill:#FFFFFFE4;}.svg-plot-line{stroke:blue;fill:none;stroke-width:1.5px;stroke-linejoin:round;}.svg-plot-fill{stroke:none;opacity:0.3;}.svg-plot-major{stroke:#000;stroke-width:1px;stroke-linecap:square;fill:none;}.svg-plot-minor{stroke:#0000004D;stroke-width:0.5px;stroke-dasharray:0.5 1.5;stroke-linecap:round;fill:none;}.svg-plot-tick{stroke:#000;fill:none;stroke-width:1px;stroke-linecap:butt;}.svg-plot-value,.svg-plot-label{font-family:Arial,sans-serif;fill:#000;stroke:#FFFFFF48;stroke-width:2.5px;paint-order:stroke fill;text-anchor:middle;dominant-baseline:central;alignment-baseline:baseline;}.svg-plot-label{font-size:12px;}.svg-plot-value{font-size:10px;}.svg-plot-hatch{stroke:#FFF;stroke-width:1px;}.svg-plot-marker{transform:scale(3.25);}.svg-plot-s{stroke:#000;}.svg-plot-f,.svg-plot-t{fill:#000;}.svg-plot-s0{stroke:#0073E6}.svg-plot-f0,.svg-plot-t0{fill:#0073E6}.svg-plot-s1{stroke:#CC0000}.svg-plot-f1,.svg-plot-t1{fill:#CC0000}.svg-plot-s2{stroke:#00B300}.svg-plot-f2,.svg-plot-t2{fill:#00B300}.svg-plot-s3{stroke:#806600}.svg-plot-f3,.svg-plot-t3{fill:#806600}.svg-plot-s4{stroke:#E69900}.svg-plot-f4,.svg-plot-t4{fill:#E69900}.svg-plot-s5{stroke:#CC00CC}.svg-plot-f5,.svg-plot-t5{fill:#CC00CC}.svg-plot-d0{stroke-width:1.35px}.svg-plot-d1{stroke-dasharray:1.8 1.8}.svg-plot-d2{stroke-dasharray:4.2 2.4}.svg-plot-d3{stroke-dasharray:7.5 6}.svg-plot-d4{stroke-dasharray:6 1.5 1.5 1.5 1.5 1.5}.svg-plot-d5{stroke-dasharray:15 4.5}.svg-plot-d6{stroke-dasharray:6 3 1.5 3}.svg-plot-h0{opacity:0.1}.svg-plot-h1{mask:url(#svg-plot-hatch1)}.svg-plot-h2{mask:url(#svg-plot-hatch2)}.svg-plot-h3{mask:url(#svg-plot-hatch3)}#svg-plot-hatch2-pattern{stroke-width:0.9px}#svg-plot-hatch3-pattern{stroke-width:0.7px}</style></svg>