<?xml version="1.0" encoding="utf-8" standalone="no"?>
<!DOCTYPE svg PUBLIC "-//W3C//DTD SVG 1.1//EN" "http://www.w3.org/Graphics/SVG/1.1/DTD/svg11.dtd">
<svg version="1.1" class="svg-plot" xmlns="http://www.w3.org/2000/svg" width="1000.55pt" height="960pt" viewBox="-84.8 -15 1000.55 960" preserveAspectRatio="xMidYMid"><rect x="-74.8" y="-5" width="980.55" height="940" class="svg-plot-bg"/><rect x="0" y="0" width="900" height="900" class="svg-plot-axis"/><line x1="0" x2="0" y1="0" y2="900" class="svg-plot-minor"/><line x1="900" x2="900" y1="0" y2="900" class="svg-plot-minor"/><line x1="0" x2="900" y1="900" y2="900" class="svg-plot-minor"/><line x1="0" x2="900" y1="0" y2="0" class="svg-plot-minor"/><clipPath id="clip0"><rect x="-0.75" y="-0.75" width="901.5" height="901.5"/></clipPath><g clip-path="url(#clip0)"><path class="svg-plot-line svg-plot-s0 svg-plot-d0" d="M 0 0 0.54 0.02 1.08 0.1 1.62 0.22 2.16 0.38 2.7 0.6 3.24 0.86 3.78 1.17 4.32 1.53 4.86 1.94 5.4 2.39 5.94 2.89 6.57 3.54 7.2 4.25 7.83 5.02 8.46 5.86 9.09 6.76 9.81 7.87 10.53 9.06 11.25 10.33 11.97 11.68 12.69 13.11 13.5 14.82 14.31 16.63 15.12 18.54 15.93 20.55 16.83 22.89 17.73 25.36 18.63 27.95 19.53 30.65 20.52 33.75 21.51 37 22.5 40.38 23.58 44.22 24.66 48.21 25.74 52.36 26.91 57.02 28.08 61.85 29.25 66.85 30.51 72.41 31.77 78.15 33.12 84.51 34.47 91.05 35.91 98.24 37.35 105.64 38.88 113.71 40.5 122.48 42.12 131.47 43.83 141.19 45.63 151.65 47.52 162.87 49.59 175.41 51.75 188.74 54.09 203.45 56.7 220.11 59.67 239.34 63.36 263.52 69.57 304.59 75.42 343.24 79.29 368.56 82.53 389.51 85.5 408.46 88.2 425.43 90.81 441.59 93.24 456.4 95.58 470.42 97.83 483.67 100.08 496.69 102.24 508.95 104.4 520.98 106.47 532.29 108.54 543.38 110.52 553.77 112.5 563.95 114.48 573.92 116.37 583.23 118.26 592.35 120.15 601.28 122.04 610.01 123.84 618.14 125.64 626.1 127.44 633.87 129.24 641.48 131.04 648.9 132.84 656.16 134.64 663.24 136.35 669.82 138.06 676.24 139.77 682.51 141.48 688.63 143.19 694.6 144.9 700.43 146.61 706.12 148.32 711.67 150.03 717.08 151.74 722.35 153.45 727.49 155.16 732.5 156.78 737.13 158.4 741.64 160.02 746.04 161.64 750.33 163.26 754.51 164.88 758.58 166.5 762.56 168.12 766.43 169.74 770.2 171.36 773.87 172.98 777.45 174.6 780.93 176.22 784.32 177.84 787.63 179.46 790.84 181.08 793.97 182.7 797.01 184.32 799.98 185.94 802.86 187.56 805.66 189.18 808.39 190.8 811.05 192.42 813.63 194.04 816.14 195.75 818.71 197.46 821.21 199.17 823.64 200.88 825.99 202.59 828.28 204.3 830.49 206.01 832.65 207.72 834.73 209.43 836.76 211.14 838.72 212.85 840.63 214.56 842.48 216.36 844.36 218.16 846.19 219.96 847.96 221.76 849.67 223.56 851.33 225.36 852.93 227.16 854.48 229.05 856.06 230.94 857.58 232.83 859.05 234.72 860.48 236.61 861.85 238.59 863.24 240.57 864.58 242.55 865.87 244.53 867.11 246.6 868.37 248.67 869.58 250.74 870.74 252.9 871.9 255.06 873.02 257.22 874.1 259.47 875.18 261.72 876.21 264.06 877.24 266.4 878.22 268.83 879.2 271.26 880.13 273.78 881.06 276.3 881.94 278.91 882.81 281.52 883.64 284.22 884.46 287.01 885.26 289.89 886.04 292.77 886.79 295.74 887.51 298.8 888.22 301.95 888.9 305.19 889.56 308.52 890.21 311.94 890.82 315.54 891.43 319.23 892.01 323.01 892.57 326.97 893.11 331.02 893.62 335.25 894.11 339.66 894.59 344.25 895.04 349.11 895.48 354.15 895.9 359.46 896.29 365.04 896.67 370.89 897.02 377.1 897.35 383.76 897.67 390.87 897.96 398.43 898.24 406.62 898.49 415.44 898.73 425.07 898.94 435.69 899.14 447.48 899.31 460.8 899.47 476.01 899.6 493.83 899.72 515.25 899.81 542.16 899.89 578.25 899.94 632.97 899.98 746.28 900 900 900"/></g><g><line x1="0" x2="0" y1="900" y2="904" class="svg-plot-tick"/><line x1="900" x2="900" y1="900" y2="904" class="svg-plot-tick"/><line x1="0" x2="-4" y1="900" y2="900" class="svg-plot-tick"/><line x1="0" x2="-4" y1="0" y2="0" class="svg-plot-tick"/><text class="svg-plot-label svg-plot-t" x="0" y="0" transform="rotate(-90) translate(-449 -69.8)">acceleration [m/s^2]</text><text class="svg-plot-value" style="text-anchor:end" x="-9" y="-1">9.81365</text><text class="svg-plot-value" style="text-anchor:end" x="-9" y="899">2.1738e-05</text><text class="svg-plot-label svg-plot-t" x="450" y="929">time [s]</text><text class="svg-plot-value" x="900" y="913">10</text><text class="svg-plot-value" x="0" y="913">0</text></g><defs><g id="svg-plot-marker0" class="svg-plot-marker"><circle cx="0" cy="0" r="1" stroke="none"/></g><g id="svg-plot-marker1" class="svg-plot-marker"><path d="M0 0.9 -0.9 0 0 -0.9 0.9 0Z" fill="#FFFA" stroke-linejoin="miter" stroke-width="0.6"/></g><g id="svg-plot-marker2" class="svg-plot-marker"><path fill="none" d="M0 -1.2 0 1.2 M -1.2 0 1.2 0" stroke-width="0.7"/></g><g id="svg-plot-marker3" class="svg-plot-marker"><circle cx="0" cy="0" fill="#FFFA" r="0.8" stroke-width="0.65"/></g><g id="svg-plot-marker4" class="svg-plot-marker"><path stroke="none" d="M0 -1.25 1.25 0.9 -1.25 0.9Z"/></g><mask id="svg-plot-hatch1"><rect x="-1323" y="-1323" width="2646" height="2646" fill="url(#svg-plot-hatch1-pattern)" style="transform:rotate(-50deg)"/></mask><pattern patternUnits="userSpaceOnUse" id="svg-plot-hatch1-pattern" class="svg-plot-hatch" x="0" y="0" width="10" height="3" stroke="#FFF" fill="none"><line x1="-1" x2="11" y1="1.5" y2="1.5"/></pattern><mask id="svg-plot-hatch2"><rect x="-1323" y="-1323" width="2646" height="2646" fill="url(#svg-plot-hatch2-pattern)" style="transform:rotate(30deg)"/></mask><pattern patternUnits="userSpaceOnUse" id="svg-plot-hatch2-pattern" class="svg-plot-hatch" x="0" y="0" width="10" height="2.4" stroke="#FFF" fill="none"><line x1="-1" x2="11" y1="1.2" y2="1.2"/></pattern><mask id="svg-plot-hatch3"><rect x="-1323" y="-1323" width="2646" height="2646" fill="url(#svg-plot-hatch3-pattern)" style="transform:rotate(8deg)"/><rect x="-1323" y="-1323" width="2646" height="2646" fill="url(#svg-plot-hatch3-pattern)" style="transform:rotate(93deg)"/></mask><pattern patternUnits="userSpaceOnUse" id="svg-plot-hatch3-pattern" class="svg-plot-hatch" x="0" y="0" width="10" height="3" stroke="#FFF" fill="none"><line x1="-1" x2="11" y1="1.5" y2="1.5"/></pattern></defs><style>.svg-plot{stroke-linecap:butt;stroke-linejoin:round;}.svg-plot-bg{fill:none;stroke:none;}.svg-plot-axis{stroke:none;fill:#FFFFFFD9;}.svg-plot-legend{stroke:none;fill:#FFFFFFE4;}.svg-plot-line{stroke:blue;fill:none;stroke-width:1.5px;stroke-linejoin:round;}.svg-plot-fill{stroke:none;opacity:0.3;}.svg-plot-major{stroke:#000;stroke-width:1px;stroke-linecap:square;fill:none;}.svg-plot-minor{stroke:#0000004D;stroke-width:0.5px;stroke-dasharray:0.5 1.5;stroke-linecap:round;fill:none;}.svg-plot-tick{stroke:#000;fill:none;stroke-width:1px;stroke-linecap:butt;}.svg-plot-value,.svg-plot-label{font-family:Arial,sans-serif;fill:#000;stroke:#FFFFFF48;stroke-width:2.5px;paint-order:stroke fill;text-anchor:middle;dominant-baseline:central;alignment-baseline:baseline;}.svg-plot-label{font-size:12px;}.svg-plot-value{font-size:10px;}.svg-plot-hatch{stroke:#FFF;stroke-width:1px;}.svg-plot-marker{transform:scale(3.25);}.svg-plot-s{stroke:#000;}.svg-plot-f,.svg-plot-t{fill:#000;}.svg-plot-s0{stroke:#0073E6}.svg-plot-f0,.svg-plot-t0{fill:#0073E6}.svg-plot-s1{stroke:#CC0000}.svg-plot-f1,.svg-plot-t1{fill:#CC0000}.svg-plot-s2{stroke:#00B300}.svg-plot-f2,.svg-plot-t2{fill:#00B300}.svg-plot-s3{stroke:#806600}.svg-plot-f3,.svg-plot-t3{fill:#806600}.svg-plot-s4{stroke:#E69900}.svg-plot-f4,.svg-plot-t4{fill:#E69900}.svg-plot-s5{stroke:#CC00CC}.svg-plot-f5,.svg-plot-t5{fill:#CC00CC}.svg-plot-d0{stroke-width:1.35px}.svg-plot-d1{stroke-dasharray:1.8 1.8}.svg-plot-d2{stroke-dasharray:4.2 2.4}.svg-plot-d3{stroke-dasharray:7.5 6}.svg-plot-d4{stroke-dasharray:6 1.5 1.5 1.5 1.5 1.5}.svg-plot-d5{stroke-dasharray:15 4.5}.svg-plot-d6{stroke-dasharray:6 3 1.5 3}.svg-plot-h0{opacity:0.1}.svg-plot-h1{mask:url(#svg-plot-hatch1)}.svg-plot-h2{mask:url(#svg-plot-hatch2)}.svg-plot-h3{mask:url(#svg-plot-hatch3)}#svg-plot-hatch2-pattern{stroke-width:0.9px}#svg-plot-hatch3-pattern{stroke-width:0.7px}</style></svg>