<?xml version="1.0" encoding="utf-8" standalone="no"?>
<!DOCTYPE svg PUBLIC "-//W3C//DTD SVG 1.1//EN" "http://www.w3.org/Graphics/SVG/1.1/DTD/svg11.dtd">
<svg version="1.1" class="svg-plot" xmlns="http://www.w3.org/2000/svg" width="984.95pt" height="960pt" viewBox="-69.2 -15 984.95 960" preserveAspectRatio="xMidYMid"><rect x="-59.2" y="-5" width="964.95" height="940" class="svg-plot-bg"/><rect x="0" y="0" width="900" height="900" class="svg-plot-axis"/><line x1="0" x2="0" y1="0" y2="900" class="svg-plot-minor"/><line x1="900" x2="900" y1="0" y2="900" class="svg-plot-minor"/><line x1="0" x2="900" y1="900" y2="900" class="svg-plot-minor"/><line x1="0" x2="900" y1="0" y2="0" class="svg-plot-minor"/><clipPath id="clip0"><rect x="-0.75" y="-0.75" width="901.5" height="901.5"/></clipPath><g clip-path="url(#clip0)"><path class="svg-plot-line svg-plot-s0 svg-plot-d0" d="M 0 900 7.92 832 12.6 792.13 16.56 758.72 20.07 729.44 23.31 702.73 26.37 677.83 29.25 654.73 31.95 633.38 34.56 613.04 37.08 593.72 39.51 575.38 41.94 557.35 44.28 540.28 46.53 524.15 48.78 508.31 50.94 493.38 53.1 478.73 55.17 464.95 57.24 451.43 59.31 438.17 61.29 425.74 63.27 413.56 65.25 401.62 67.23 389.93 69.12 379 71.01 368.3 72.9 357.82 74.79 347.57 76.68 337.55 78.48 328.21 80.28 319.07 82.08 310.13 83.88 301.4 85.68 292.86 87.48 284.51 89.28 276.36 91.08 268.4 92.79 261.02 94.5 253.81 96.21 246.76 97.92 239.88 99.63 233.16 101.34 226.6 103.05 220.2 104.76 213.96 106.47 207.87 108.18 201.93 109.89 196.14 111.6 190.5 113.31 185 114.93 179.92 116.55 174.96 118.17 170.13 119.79 165.41 121.41 160.82 123.03 156.34 124.65 151.97 126.27 147.71 127.89 143.56 129.51 139.52 131.13 135.59 132.75 131.75 134.37 128.02 135.99 124.38 137.61 120.84 139.23 117.4 140.85 114.04 142.47 110.78 144.09 107.6 145.71 104.5 147.33 101.5 148.95 98.57 150.57 95.72 152.19 92.95 153.81 90.26 155.43 87.64 157.05 85.09 158.67 82.61 160.38 80.07 162.09 77.61 163.8 75.21 165.51 72.89 167.22 70.64 168.93 68.45 170.64 66.33 172.35 64.27 174.06 62.28 175.77 60.34 177.48 58.46 179.19 56.64 180.99 54.78 182.79 52.98 184.59 51.24 186.39 49.55 188.19 47.92 189.99 46.34 191.88 44.74 193.77 43.19 195.66 41.69 197.55 40.24 199.44 38.84 201.42 37.43 203.4 36.07 205.38 34.75 207.36 33.48 209.43 32.21 211.5 30.98 213.57 29.8 215.73 28.61 217.89 27.47 220.05 26.38 222.3 25.28 224.55 24.23 226.8 23.22 229.14 22.22 231.48 21.26 233.91 20.3 236.34 19.39 238.86 18.49 241.47 17.6 244.08 16.75 246.78 15.91 249.48 15.12 252.27 14.34 255.15 13.58 258.12 12.83 261.18 12.11 264.33 11.41 267.57 10.73 270.9 10.07 274.32 9.43 277.83 8.83 281.43 8.24 285.21 7.67 289.08 7.13 293.13 6.6 297.36 6.09 301.68 5.61 306.18 5.15 310.95 4.7 315.9 4.28 321.12 3.87 326.61 3.49 332.37 3.12 338.49 2.78 344.97 2.46 351.9 2.15 359.28 1.87 367.2 1.61 375.75 1.37 385.11 1.15 395.37 0.94 406.71 0.76 419.4 0.6 433.89 0.46 450.63 0.33 470.61 0.23 495.18 0.15 527.22 0.08 573.21 0.04 654.39 0.01 900 0"/></g><g><line x1="0" x2="0" y1="900" y2="904" class="svg-plot-tick"/><line x1="900" x2="900" y1="900" y2="904" class="svg-plot-tick"/><line x1="0" x2="-4" y1="900" y2="900" class="svg-plot-tick"/><line x1="0" x2="-4" y1="0" y2="0" class="svg-plot-tick"/><text class="svg-plot-label svg-plot-t" x="0" y="0" transform="rotate(-90) translate(-449 -54.2)">velocity [m/s]</text><text class="svg-plot-value" style="text-anchor:end" x="-9" y="-1">11.4088</text><text class="svg-plot-value" style="text-anchor:end" x="-9" y="899">0</text><text class="svg-plot-label svg-plot-t" x="450" y="929">time [s]</text><text class="svg-plot-value" x="900" y="913">10</text><text class="svg-plot-value" x="0" y="913">0</text></g><defs><g id="svg-plot-marker0" class="svg-plot-marker"><circle cx="0" cy="0" r="1" stroke="none"/></g><g id="svg-plot-marker1" class="svg-plot-marker"><path d="M0 0.9 -0.9 0 0 -0.9 0.9 0Z" fill="#FFFA" stroke-linejoin="miter" stroke-width="0.6"/></g><g id="svg-plot-marker2" class="svg-plot-marker"><path fill="none" d="M0 -1.2 0 1.2 M -1.2 0 1.2 0" stroke-width="0.7"/></g><g id="svg-plot-marker3" class="svg-plot-marker"><circle cx="0" cy="0" fill="#FFFA" r="0.8" stroke-width="0.65"/></g><g id="svg-plot-marker4" class="svg-plot-marker"><path stroke="none" d="M0 -1.25 1.25 0.9 -1.25 0.9Z"/></g><mask id="svg-plot-hatch1"><rect x="-1323" y="-1323" width="2646" height="2646" fill="url(#svg-plot-hatch1-pattern)" style="transform:rotate(-50deg)"/></mask><pattern patternUnits="userSpaceOnUse" id="svg-plot-hatch1-pattern" class="svg-plot-hatch" x="0" y="0" width="10" height="3" stroke="#FFF" fill="none"><line x1="-1" x2="11" y1="1.5" y2="1.5"/></pattern><mask id="svg-plot-hatch2"><rect x="-1323" y="-1323" width="2646" height="2646" fill="url(#svg-plot-hatch2-pattern)" style="transform:rotate(30deg)"/></mask><pattern patternUnits="userSpaceOnUse" id="svg-plot-hatch2-pattern" class="svg-plot-hatch" x="0" y="0" width="10" height="2.4" stroke="#FFF" fill="none"><line x1="-1" x2="11" y1="1.2" y2="1.2"/></pattern><mask id="svg-plot-hatch3"><rect x="-1323" y="-1323" width="2646" height="2646" fill="url(#svg-plot-hatch3-pattern)" style="transform:rotate(8deg)"/><rect x="-1323" y="-1323" width="2646" height="2646" fill="url(#svg-plot-hatch3-pattern)" style="transform:rotate(93deg)"/></mask><pattern patternUnits="userSpaceOnUse" id="svg-plot-hatch3-pattern" class="svg-plot-hatch" x="0" y="0" width="10" height="3" stroke="#FFF" fill="none"><line x1="-1" x2="11" y1="1.5" y2="1.5"/></pattern></defs><style>.svg-plot{stroke-linecap:butt;stroke-linejoin:round;}.svg-plot-bg{fill:none;stroke:none;}.svg-plot-axis{stroke:none;fill:#FFFFFFD9;}.svg-plot-legend{stroke:none;fill:#FFFFFFE4;}.svg-plot-line{stroke:blue;fill:none;stroke-width:1.5px;stroke-linejoin:round;}.svg-plot-fill{stroke:none;opacity:0.3;}.svg-plot-major{stroke:#000;stroke-width:1px;stroke-linecap:square;fill:none;}.svg-plot-minor{stroke:#0000004D;stroke-width:0.5px;stroke-dasharray:0.5 1.5;stroke-linecap:round;fill:none;}.svg-plot-tick{stroke:#000;fill:none;stroke-width:1px;stroke-linecap:butt;}.svg-plot-value,.svg-plot-label{font-family:Arial,sans-serif;fill:#000;stroke:#FFFFFF48;stroke-width:2.5px;paint-order:stroke fill;text-anchor:middle;dominant-baseline:central;alignment-baseline:baseline;}.svg-plot-label{font-size:12px;}.svg-plot-value{font-size:10px;}.svg-plot-hatch{stroke:#FFF;stroke-width:1px;}.svg-plot-marker{transform:scale(3.25);}.svg-plot-s{stroke:#000;}.svg-plot-f,.svg-plot-t{fill:#000;}.svg-plot-s0{stroke:#0073E6}.svg-plot-f0,.svg-plot-t0{fill:#0073E6}.svg-plot-s1{stroke:#CC0000}.svg-plot-f1,.svg-plot-t1{fill:#CC0000}.svg-plot-s2{stroke:#00B300}.svg-plot-f2,.svg-plot-t2{fill:#00B300}.svg-plot-s3{stroke:#806600}.svg-plot-f3,.svg-plot-t3{fill:#806600}.svg-plot-s4{stroke:#E69900}.svg-plot-f4,.svg-plot-t4{fill:#E69900}.svg-plot-s5{stroke:#CC00CC}.svg-plot-f5,.svg-plot-t5{fill:#CC00CC}.svg-plot-d0{stroke-width:1.35px}.svg-plot-d1{stroke-dasharray:1.8 1.8}.svg-plot-d2{stroke-dasharray:4.2 2.4}.svg-plot-d3{stroke-dasharray:7.5 6}.svg-plot-d4{stroke-dasharray:6 1.5 1.5 1.5 1.5 1.5}.svg-plot-d5{stroke-dasharray:15 4.5}.svg-plot-d6{stroke-dasharray:6 3 1.5 3}.svg-plot-h0{opacity:0.1}.svg-plot-h1{mask:url(#svg-plot-hatch1)}.svg-plot-h2{mask:url(#svg-plot-hatch2)}.svg-plot-h3{mask:url(#svg-plot-hatch3)}#svg-plot-hatch2-pattern{stroke-width:0.9px}#svg-plot-hatch3-pattern{stroke-width:0.7px}</style></svg>